<svg width="100" height="100" viewBox="0 0 100 100" xmlns="http://www.w3.org/2000/svg">
  <g fill="#3c6382">
    <path d="M50,5 C55,5 60,10 60,15 C60,20 55,25 50,25 C45,25 40,20 40,15 C40,10 45,5 50,5 Z"/>
    <path d="M25,30 C30,30 35,35 35,40 C35,45 30,50 25,50 C20,50 15,45 15,40 C15,35 20,30 25,30 Z"/>
    <path d="M75,30 C80,30 85,35 85,40 C85,45 80,50 75,50 C70,50 65,45 65,40 C65,35 70,30 75,30 Z"/>
    <path d="M50,55 C55,55 60,60 60,65 C60,70 55,75 50,75 C45,75 40,70 40,65 C40,60 45,55 50,55 Z"/>
    <path d="M25,80 C30,80 35,85 35,90 C35,95 30,100 25,100 C20,100 15,95 15,90 C15,85 20,80 25,80 Z"/>
    <path d="M75,80 C80,80 85,85 85,90 C85,95 80,100 75,100 C70,100 65,95 65,90 C65,85 70,80 75,80 Z"/>
    <path d="M50,5 L50,25 M25,30 L40,40 M75,30 L60,40 M50,55 L50,75 M25,80 L40,65 M75,80 L60,65"/>
    <circle cx="50" cy="50" r="5"/>
  </g>
</svg>